<svg width="56" height="56" viewBox="0 0 56 56" fill="none" xmlns="http://www.w3.org/2000/svg">
<g clip-path="url(#clip0_24549_84890)">
<path d="M55.156 34.7739C51.4163 49.774 36.2237 58.9029 21.2218 55.1623C6.22603 51.4225 -2.90285 36.229 0.838653 21.2298C4.57665 6.22789 19.7693 -2.90185 34.7668 0.837896C49.7678 4.57765 58.8958 19.7729 55.156 34.7739Z" fill="#FF5C00"/>
<path d="M40.3384 24.0105C40.8957 20.2847 38.059 18.2819 34.1801 16.9457L35.4384 11.8987L32.3662 11.1331L31.1412 16.0471C30.3336 15.8459 29.5041 15.656 28.6799 15.4679L29.9136 10.5215L26.8432 9.75586L25.5841 14.8011C24.9156 14.6489 24.2594 14.4984 23.6224 14.34L23.6258 14.3242L19.3891 13.2664L18.5718 16.5476C18.5718 16.5476 20.8512 17.07 20.8031 17.1024C22.0473 17.413 22.2722 18.2364 22.2346 18.8891L20.8013 24.6387C20.8871 24.6606 20.9982 24.6921 21.1207 24.7411C21.0183 24.7157 20.909 24.6877 20.7961 24.6606L18.7871 32.715C18.6348 33.093 18.249 33.66 17.3792 33.4447C17.4098 33.4894 15.1462 32.8874 15.1462 32.8874L13.6211 36.404L17.619 37.4006C18.3627 37.587 19.0916 37.7821 19.8091 37.9659L18.5377 43.0706L21.6063 43.8362L22.8655 38.7857C23.7037 39.0132 24.5175 39.2232 25.3137 39.421L24.059 44.4479L27.1311 45.2135L28.4025 40.1184C33.6411 41.1097 37.5804 40.7099 39.2385 35.9717C40.5746 32.1567 39.172 29.9561 36.4157 28.5211C38.423 28.0582 39.935 26.7379 40.3384 24.0105V24.0105ZM33.3191 33.8534C32.3697 37.6684 25.9464 35.606 23.8638 35.0889L25.5509 28.326C27.6334 28.8457 34.3114 29.8747 33.3191 33.8534ZM34.2694 23.9554C33.4031 27.4256 28.0569 25.6625 26.3226 25.2302L27.8521 19.0965C29.5864 19.5287 35.1715 20.3355 34.2694 23.9554V23.9554Z" fill="white"/>
</g>
<defs>
<clipPath id="clip0_24549_84890">
<rect width="56" height="56" fill="white"/>
</clipPath>
</defs>
</svg>
