<svg width="12" height="12" viewBox="0 0 12 12" fill="none" xmlns="http://www.w3.org/2000/svg">
<circle cx="6" cy="6" r="6" fill="#E8E6E2"/>
<path d="M6.3682 7.52634V7.46874C6.3682 7.07514 6.5506 6.77754 6.8866 6.53754L7.2802 6.25914C7.8466 5.85594 8.2306 5.31834 8.2306 4.55994C8.2306 3.59034 7.453 2.64954 5.965 2.64954C4.5442 2.64954 3.7666 3.64794 3.7666 4.68474C3.7666 4.82874 3.7762 4.98234 3.8146 5.11674L5.0242 5.16474C4.9954 5.07834 4.9858 4.97274 4.9858 4.85754C4.9858 4.31994 5.2834 3.77274 5.965 3.77274C6.6082 3.77274 6.925 4.19514 6.925 4.63674C6.925 4.92474 6.8002 5.18394 6.5122 5.39514L6.0514 5.74074C5.5042 6.15354 5.293 6.62394 5.293 7.13274C5.293 7.27674 5.3122 7.40154 5.3314 7.52634H6.3682ZM5.1106 8.91834C5.1106 9.34074 5.4466 9.67674 5.869 9.67674C6.2914 9.67674 6.637 9.34074 6.637 8.91834C6.637 8.49594 6.2914 8.15034 5.869 8.15034C5.4466 8.15034 5.1106 8.49594 5.1106 8.91834Z" fill="#737373"/>
</svg>
