<svg width="16" height="17" viewBox="0 0 16 17" fill="none" xmlns="http://www.w3.org/2000/svg">
<path d="M13.4361 4.53978C12.5779 3.05329 11.1643 1.96861 9.50632 1.52436L7.83127 7.77573L13.4361 4.53978Z" fill="#FFDB63"/>
<path d="M4.59532 2.1709C3.10883 3.02913 2.02415 4.44271 1.5799 6.10068L7.83127 7.77573L4.59532 2.1709Z" fill="#FFDB63"/>
<path d="M2.22644 11.0117C3.08467 12.4982 4.49825 13.5829 6.15622 14.0271L7.83127 7.77573L2.22644 11.0117Z" fill="#FFDB63"/>
<path d="M11.0672 13.3806C12.5537 12.5223 13.6384 11.1087 14.0826 9.45078L7.83127 7.77573L11.0672 13.3806Z" fill="#FFDB63"/>
<path d="M9.50632 1.52436C7.84835 1.08011 6.08182 1.31268 4.59532 2.1709L7.83127 7.77573L9.50632 1.52436Z" fill="#F8BE00"/>
<path d="M1.5799 6.10068C1.13565 7.75865 1.36822 9.52519 2.22644 11.0117L7.83127 7.77573L1.5799 6.10068Z" fill="#F8BE00"/>
<path d="M6.15622 14.0271C7.81419 14.4714 9.58073 14.2388 11.0672 13.3806L7.83127 7.77573L6.15622 14.0271Z" fill="#F8BE00"/>
<path d="M14.0826 9.45078C14.5269 7.79281 14.2943 6.02627 13.4361 4.53978L7.83127 7.77573L14.0826 9.45078Z" fill="#F8BE00"/>
<circle cx="7.82932" cy="7.77512" r="7.11909" stroke="white" stroke-width="1.29438"/>
<circle cx="7.82932" cy="7.77512" r="6.04044" stroke="black" stroke-width="0.86292"/>
</svg>
